<svg id="Capa_1" data-name="Capa 1" xmlns="http://www.w3.org/2000/svg" viewBox="0 0 31.96 32"><defs><style>.cls-1{fill:#38b9cc;}.cls-2{fill:#39a935;}.cls-3{fill:#f7c502;}.cls-4{fill:#ec6a15;}</style></defs><title>Imagen_Logo_circular</title><path class="cls-1" d="M7.78,16.66H0v.08c0,.13,0,.26,0,.38s0,.29,0,.43,0,.25,0,.37,0,.28.05.42l.06.36c0,.14.05.28.08.42a3.59,3.59,0,0,0,.08.35l.09.42.09.34.12.41c0,.11.07.22.11.33s.09.28.13.41l.12.32c.06.13.11.27.16.4s.09.21.14.31a3.52,3.52,0,0,0,.18.4,2.59,2.59,0,0,0,.14.29c.07.14.13.27.2.4l.16.28c.07.13.14.26.22.39l.16.26c.08.13.16.26.25.39l.17.25.27.38.17.23.3.37.17.22.32.37.18.2.35.36.18.18c.12.12.24.24.37.35l.18.17.4.34c.06.05.12.11.18.15l.42.34.18.13a5.15,5.15,0,0,0,.45.32l.17.12.48.31.16.1.51.29.15.09.55.28.13.06.58.27.13.05.62.25.09,0,.67.23.07,0c.24.08.48.15.73.21h0a16.4,16.4,0,0,0,4,.5,16.18,16.18,0,0,0,3.21-.32l.08,0L20,31.5l.13,0,.61-.17.18-.06.56-.19.2-.08.52-.2.21-.1.49-.21.23-.12.45-.23.23-.13.43-.25.24-.15c.14-.08.27-.17.4-.26l.24-.16.38-.27.25-.19c.12-.09.24-.18.35-.28l.24-.2c.12-.09.23-.19.34-.29a2.39,2.39,0,0,0,.23-.22l.32-.3.23-.23.3-.31c.07-.08.15-.16.22-.25l.28-.32.21-.25A12.77,12.77,0,0,1,7.78,16.66Z" transform="translate(-0.02 0)"/><path class="cls-2" d="M15.37,16.66H9.11a11.45,11.45,0,0,0,20,7,9,9,0,0,1-13.7-7Z" transform="translate(-0.02 0)"/><path class="cls-3" d="M20.55,4.55A11.46,11.46,0,0,0,9.11,15.34H32A11.46,11.46,0,0,0,20.55,4.55Z" transform="translate(-0.02 0)"/><path class="cls-3" d="M7.78,15.34A12.78,12.78,0,0,1,28.45,6,16,16,0,0,0,0,15.34H7.78Z" transform="translate(-0.02 0)"/><path class="cls-4" d="M24.33,23.67a7.68,7.68,0,0,0,7.64-7H16.7A7.67,7.67,0,0,0,24.33,23.67Z" transform="translate(-0.02 0)"/></svg>