<svg id="Capa_5" data-name="Capa 5" xmlns="http://www.w3.org/2000/svg" xmlns:xlink="http://www.w3.org/1999/xlink" viewBox="0 0 900 1080"><defs><style>.cls-1{fill:none;}.cls-2{fill:#101820;}.cls-3{fill:#76dce5;}.cls-4{fill:#1ac4d4;}.cls-5{fill:#d1f0d0;}.cls-6{fill:#f8c606;}.cls-7{fill:#f66901;}.cls-8{fill:#fbc399;}.cls-9{fill:#f4f4f4;}.cls-10{clip-path:url(#clip-path);}.cls-11{fill:url(#Degradado_sin_nombre_35);}.cls-12{clip-path:url(#clip-path-2);}.cls-13{fill:url(#Degradado_sin_nombre_22);}.cls-14{clip-path:url(#clip-path-3);}.cls-15{fill:url(#Degradado_sin_nombre_22-2);}.cls-16{clip-path:url(#clip-path-4);}</style><clipPath id="clip-path" transform="translate(-509.88 0)"><path class="cls-1" d="M869.88,720a180,180,0,0,0-180,180v180h180a180,180,0,1,0,0-360Z"/></clipPath><linearGradient id="Degradado_sin_nombre_35" x1="540" y1="540" x2="540" y2="180" gradientUnits="userSpaceOnUse"><stop offset="0" stop-color="#f42003"/><stop offset="0.04" stop-color="#f42e03"/><stop offset="0.13" stop-color="#f54402"/><stop offset="0.23" stop-color="#f55502"/><stop offset="0.35" stop-color="#f66001"/><stop offset="0.52" stop-color="#f66701"/><stop offset="1" stop-color="#f66901"/></linearGradient><clipPath id="clip-path-2" transform="translate(-509.88 0)"><circle class="cls-1" cx="1049.88" cy="360" r="180"/></clipPath><linearGradient id="Degradado_sin_nombre_22" x1="689.88" y1="720" x2="689.88" y2="360" gradientUnits="userSpaceOnUse"><stop offset="0" stop-color="#cb881a"/><stop offset="0.1" stop-color="#d79915"/><stop offset="0.25" stop-color="#e6ad0e"/><stop offset="0.43" stop-color="#f0bb0a"/><stop offset="0.64" stop-color="#f6c307"/><stop offset="1" stop-color="#f8c606"/></linearGradient><clipPath id="clip-path-3" transform="translate(-509.88 0)"><path class="cls-1" d="M869.88,540a180,180,0,1,1-180-180V540Z"/></clipPath><linearGradient id="Degradado_sin_nombre_22-2" x1="720" y1="900" x2="720" y2="540" xlink:href="#Degradado_sin_nombre_22"/><clipPath id="clip-path-4" transform="translate(-509.88 0)"><circle class="cls-1" cx="1229.88" cy="720" r="180"/></clipPath></defs><title>Imagen_Grupal</title><rect class="cls-2" x="180" width="720" height="1080"/><path class="cls-3" d="M869.88,720a180,180,0,0,0-180,180V720Z" transform="translate(-509.88 0)"/><path class="cls-4" d="M869.88,180a180,180,0,0,1-180,180V0A180,180,0,0,1,869.88,180Z" transform="translate(-509.88 0)"/><path class="cls-3" d="M689.88,180V360a90,90,0,0,1,0-180Z" transform="translate(-509.88 0)"/><rect class="cls-5" y="900" width="180" height="180"/><path class="cls-6" d="M1409.88,720V900h-360V540h180A180,180,0,0,1,1409.88,720Z" transform="translate(-509.88 0)"/><path class="cls-7" d="M1229.88,360V540h-360V360a180,180,0,1,1,360,0Z" transform="translate(-509.88 0)"/><path class="cls-3" d="M1049.88,630a90,90,0,0,1-180,0V540h90A90,90,0,0,1,1049.88,630Z" transform="translate(-509.88 0)"/><path class="cls-4" d="M1229.88,990v90h-180V900h90A90,90,0,0,1,1229.88,990Z" transform="translate(-509.88 0)"/><path class="cls-8" d="M1409.88,990v90h-90a90,90,0,1,1,90-90Z" transform="translate(-509.88 0)"/><path class="cls-3" d="M1409.88,360v90a90,90,0,0,1-180,0V360Z" transform="translate(-509.88 0)"/><path class="cls-5" d="M1409.88,180v90a90,90,0,0,1-90,90h-90V270a90,90,0,0,1,90-90Z" transform="translate(-509.88 0)"/><path class="cls-8" d="M869.88,450h-90v90a90,90,0,1,1,90-90Z" transform="translate(-509.88 0)"/><path class="cls-4" d="M689.88,900v180a90,90,0,0,1,0-180Z" transform="translate(-509.88 0)"/><path class="cls-9" d="M869.88,720a180,180,0,0,0-180,180v180h180a180,180,0,1,0,0-360Z" transform="translate(-509.88 0)"/><g class="cls-10"><image width="934" height="550" transform="translate(63.44 769) scale(0.57)" xlink:href="../ff39d5_f97bdf59421c489b9f334979242ddf53_mv2.png"/></g><circle class="cls-11" cx="540" cy="360" r="180"/><g class="cls-12"><image width="431" height="714" transform="translate(414.64 123) scale(0.58)" xlink:href="../traveler.png"/></g><path class="cls-13" d="M869.88,540a180,180,0,1,1-180-180V540Z" transform="translate(-509.88 0)"/><g class="cls-14"><image width="800" height="1176" transform="translate(41.43 407) scale(0.27)" xlink:href="../traveler-png-2.png"/></g><circle class="cls-15" cx="720" cy="720" r="180"/><g class="cls-16"><image width="800" height="860" transform="translate(571.44 580) scale(0.37)" xlink:href="../../Downloads/kisspng-flight-length-travel-boarding-pass-suitcase-tourist-5acaafd4eef070.5826515915232327249787.png"/></g></svg>