<svg xmlns="http://www.w3.org/2000/svg" viewBox="0 0 149.52 42.23"><defs><style>.cls-1{isolation:isolate;}.cls-2{fill:#1ac4d4;}.cls-2,.cls-3,.cls-4,.cls-5{mix-blend-mode:multiply;}.cls-3{fill:#18b416;}.cls-4{fill:#f8c606;}.cls-5{fill:#f66901;}.cls-6{fill:#101820;}</style></defs><title>Imagen_Logo</title><g class="cls-1"><g id="Capa_1" data-name="Capa 1"><path class="cls-2" d="M10.72,60.55H.48v.11l0,.5c0,.18,0,.37,0,.56l.06.49c0,.18.05.37.07.55s0,.32.08.48.06.37.1.55.07.31.1.47.08.36.13.54l.12.46.15.54c0,.15.1.29.14.44s.12.36.19.53l.15.43.21.53.18.4c.08.18.15.36.24.53s.12.26.19.39.17.35.26.52l.21.37c.09.17.19.34.29.51s.14.24.22.35.21.34.32.51l.22.33.36.5.23.31.39.49c.08.1.16.19.23.29l.42.48.24.27c.15.16.3.32.46.47l.24.25.48.46.25.22.52.45.23.2.56.44.23.18.6.42.22.16.64.4.21.14.68.38.2.12.71.36.19.09c.25.13.51.24.76.35l.16.07c.27.12.55.22.82.33l.13,0c.29.11.59.21.89.3l.08,0,1,.28h0a21.26,21.26,0,0,0,9.51.23l.11,0c.3-.07.6-.13.89-.21l.19,0,.8-.23.24-.08.73-.25.27-.1c.23-.08.45-.17.68-.27L30,79l.63-.29.31-.15c.2-.1.4-.2.59-.31l.32-.17.56-.33.31-.2c.18-.11.36-.22.53-.34a3.62,3.62,0,0,0,.32-.22l.5-.35.32-.24.48-.38.31-.26.45-.38.3-.29a5.33,5.33,0,0,0,.42-.4l.31-.3.39-.42c.1-.1.2-.21.29-.32s.25-.28.37-.43.18-.21.27-.33A16.85,16.85,0,0,1,10.72,60.55Z" transform="translate(-0.48 -38.56)"/><path class="cls-3" d="M20.73,60.55H12.47a15.1,15.1,0,0,0,26.34,9.21,11.76,11.76,0,0,1-6.25,1.79A11.89,11.89,0,0,1,20.73,60.55Z" transform="translate(-0.48 -38.56)"/><path class="cls-4" d="M27.57,44.56A15.14,15.14,0,0,0,12.47,58.8H42.66A15.14,15.14,0,0,0,27.57,44.56Z" transform="translate(-0.48 -38.56)"/><path class="cls-4" d="M10.72,58.8A16.85,16.85,0,0,1,38,46.43,21.1,21.1,0,0,0,.48,58.8H10.72Z" transform="translate(-0.48 -38.56)"/><path class="cls-5" d="M32.56,69.8a10.15,10.15,0,0,0,10.09-9.25H22.49A10.13,10.13,0,0,0,32.56,69.8Z" transform="translate(-0.48 -38.56)"/><path class="cls-6" d="M149.68,54.47a7.55,7.55,0,0,0-4.41,1.42V54.47h-3.13V69.53h3.13V62a4.41,4.41,0,0,1,4.41-4.39H150V54.47Z" transform="translate(-0.48 -38.56)"/><path class="cls-6" d="M86.9,56.33a7.52,7.52,0,1,0-.54,11.8v1.41h3.13V62A7.51,7.51,0,0,0,86.9,56.33ZM82,66.42A4.41,4.41,0,1,1,86.36,62,4.41,4.41,0,0,1,82,66.42Z" transform="translate(-0.48 -38.56)"/><path class="cls-6" d="M114.27,56.33a7.52,7.52,0,1,0-.53,11.8v1.41h3.13V62A7.52,7.52,0,0,0,114.27,56.33Zm-4.94,10.09A4.41,4.41,0,1,1,113.74,62,4.41,4.41,0,0,1,109.33,66.42Z" transform="translate(-0.48 -38.56)"/><polygon class="cls-6" points="99.54 15.92 95.12 27.28 90.81 15.92 87.63 15.92 93.66 30.99 96.58 30.99 102.72 15.92 99.54 15.92"/><path class="cls-6" d="M58.47,54.49a7.54,7.54,0,0,0-4.41,1.41V50.2H50.93V69.54h3.13V68.13a7.53,7.53,0,1,0,4.41-13.64Zm0,11.93A4.41,4.41,0,1,1,62.86,62,4.41,4.41,0,0,1,58.47,66.42Z" transform="translate(-0.48 -38.56)"/><path class="cls-6" d="M75,57.61V54.48h-.33a7.46,7.46,0,0,0-4.4,1.43V54.48H67.16V69.55h3.13V62a4.41,4.41,0,0,1,4.4-4.4Z" transform="translate(-0.48 -38.56)"/><path class="cls-6" d="M137.85,62.19a4.2,4.2,0,1,1-8.4,0V54.48h-3.14v7.71a7.34,7.34,0,1,0,14.67,0V54.48h-3.13Z" transform="translate(-0.48 -38.56)"/><path class="cls-6" d="M121.16,54.48v-4.3H118V62a7.5,7.5,0,0,0,3.33,6.24,5.37,5.37,0,0,0,.53.34l.14.07c.2.1.4.21.6.29a5.54,5.54,0,0,0,.78.27,4.87,4.87,0,0,0,.6.16l.09,0c.19,0,.38.06.59.09a2.28,2.28,0,0,0,.45,0V66.38a4.39,4.39,0,0,1-4-4.38V57.61h4V54.48h-4Z" transform="translate(-0.48 -38.56)"/></g></g></svg>